# xmcd
#
# Track frame offsets: 
#        150
#        15550
#        30506
#        51709
#        66180
#        69794
#        95956
#        102421
#        134281
#        150632
#        171035
#        185789
#        196620
#        234036
#
# Disc length: 3653 seconds
#
# Revision: 1
# Processed by: cddbd v1.5.2PL0 Copyright (c) Steve Scherf et al.
# Submitted via: ExactAudioCopy v0.99pb4
#
DISCID=b80e430e
DTITLE=Bruce Springsteen - Minneapolis, 10-12-05[CD2]
DYEAR=2005
DGENRE=Rock and Roll
TTITLE0=Darkness On The Edge Of Town
TTITLE1=Intro
TTITLE2=Jesus Was An Only Son
TTITLE3=Two Hearts
TTITLE4=Intro
TTITLE5=The New Timer
TTITLE6=Intro
TTITLE7=Matamoros Banks
TTITLE8=I Wanna Marry You
TTITLE9=The Ties That Bind
TTITLE10=My Best Was Never Good Enough
TTITLE11=Thanks
TTITLE12=The Promised Land
TTITLE13=Dream Baby Dream
EXTD=
EXTT0=
EXTT1=
EXTT2=
EXTT3=
EXTT4=
EXTT5=
EXTT6=
EXTT7=
EXTT8=
EXTT9=
EXTT10=
EXTT11=
EXTT12=
EXTT13=
PLAYORDER=
